<mxfile host="app.diagrams.net" modified="2022-10-31T12:13:09.258Z" agent="5.0 (Macintosh; Intel Mac OS X 10_15_7) AppleWebKit/537.36 (KHTML, like Gecko) Chrome/106.0.0.0 Safari/537.36" etag="PpViQkN1uQfc7WfoAq4C" version="20.5.1" type="github">
  <diagram id="Ns7SEuRgF9EOtkQkdcl-" name="Page-1">
    <mxGraphModel dx="1234" dy="826" grid="1" gridSize="10" guides="1" tooltips="1" connect="1" arrows="1" fold="1" page="1" pageScale="1" pageWidth="850" pageHeight="1100" math="0" shadow="0">
      <root>
        <mxCell id="0" />
        <mxCell id="1" parent="0" />
        <mxCell id="AENiKOFf5tu69CH_ZJaq-3" style="edgeStyle=orthogonalEdgeStyle;rounded=0;orthogonalLoop=1;jettySize=auto;html=1;exitX=0.5;exitY=1;exitDx=0;exitDy=0;entryX=0.425;entryY=-0.067;entryDx=0;entryDy=0;entryPerimeter=0;" edge="1" parent="1" source="AENiKOFf5tu69CH_ZJaq-1" target="AENiKOFf5tu69CH_ZJaq-8">
          <mxGeometry relative="1" as="geometry">
            <mxPoint x="160" y="350" as="targetPoint" />
            <Array as="points">
              <mxPoint x="270" y="310" />
              <mxPoint x="160" y="310" />
            </Array>
          </mxGeometry>
        </mxCell>
        <mxCell id="AENiKOFf5tu69CH_ZJaq-1" value="DOCKER Compose&amp;nbsp;" style="rounded=0;whiteSpace=wrap;html=1;" vertex="1" parent="1">
          <mxGeometry x="210" y="170" width="120" height="60" as="geometry" />
        </mxCell>
        <mxCell id="AENiKOFf5tu69CH_ZJaq-13" style="edgeStyle=orthogonalEdgeStyle;rounded=0;orthogonalLoop=1;jettySize=auto;html=1;entryX=0;entryY=0.5;entryDx=0;entryDy=0;" edge="1" parent="1" source="AENiKOFf5tu69CH_ZJaq-6" target="AENiKOFf5tu69CH_ZJaq-9">
          <mxGeometry relative="1" as="geometry" />
        </mxCell>
        <mxCell id="AENiKOFf5tu69CH_ZJaq-6" value="Shopizer Java&amp;nbsp;" style="whiteSpace=wrap;html=1;" vertex="1" parent="1">
          <mxGeometry x="300" y="360" width="120" height="60" as="geometry" />
        </mxCell>
        <mxCell id="AENiKOFf5tu69CH_ZJaq-10" style="edgeStyle=orthogonalEdgeStyle;rounded=0;orthogonalLoop=1;jettySize=auto;html=1;entryX=0;entryY=0.5;entryDx=0;entryDy=0;" edge="1" parent="1" source="AENiKOFf5tu69CH_ZJaq-8" target="AENiKOFf5tu69CH_ZJaq-6">
          <mxGeometry relative="1" as="geometry" />
        </mxCell>
        <mxCell id="AENiKOFf5tu69CH_ZJaq-8" value="Shopizer Mysql" style="whiteSpace=wrap;html=1;" vertex="1" parent="1">
          <mxGeometry x="110" y="360" width="120" height="60" as="geometry" />
        </mxCell>
        <mxCell id="AENiKOFf5tu69CH_ZJaq-9" value="SonarQube" style="whiteSpace=wrap;html=1;" vertex="1" parent="1">
          <mxGeometry x="480" y="360" width="120" height="60" as="geometry" />
        </mxCell>
        <mxCell id="AENiKOFf5tu69CH_ZJaq-16" value="Custom image which adds&amp;nbsp;" style="whiteSpace=wrap;html=1;" vertex="1" parent="1">
          <mxGeometry x="305" y="490" width="120" height="60" as="geometry" />
        </mxCell>
      </root>
    </mxGraphModel>
  </diagram>
</mxfile>
